# xmcd
#
# Track frame offsets:
#	150
#	6999
#	14174
#	32109
#	56097
#	65911
#	81248
#	94607
#	118876
#	139892
#	151049
#	158599
#	166239
#	185161
#	192543
#	207419
#	219477
#	240276
#
# Disc length: 3382 seconds
#
# Revision: 0
# Processed by: cddbd v1.5.2PL0 Copyright (c) Steve Scherf et al.
# Submitted via: EasyCDDAExtractor 16.0.8.2
#
DISCID=040d3412
DTITLE=Άνευ ερμηνευτού - Αλέξανδρος Alexander-Βαγγ. Παπαθανασίου
DYEAR=2004
DGENRE=Ξ. Κινηματογραφική
TTITLE0=Άνευ ερμηνευτού - Introduction
TTITLE1=Άνευ ερμηνευτού - Young Alexander
TTITLE2=Άνευ ερμηνευτού - Titans
TTITLE3=Epirus polyphonic ensemble - The drums of Gaugamela
TTITLE4=Άνευ ερμηνευτού - One morning at Pella
TTITLE5=Άνευ ερμηνευτού - Roxane's dance
TTITLE6=Άνευ ερμηνευτού - Eastern path
TTITLE7=Valentinova Karpouchina Irina - Gardens of delight
TTITLE8=Άνευ ερμηνευτού - Roxane's veil
TTITLE9=Άνευ ερμηνευτού - Bagoas' dance
TTITLE10=Άνευ ερμηνευτού - The charge
TTITLE11=Άνευ ερμηνευτού - Preparation
TTITLE12=Άνευ ερμηνευτού - Across the mountains
TTITLE13=Άνευ ερμηνευτού - Chant
TTITLE14=Άνευ ερμηνευτού - Immortality
TTITLE15=Άνευ ερμηνευτού - Dream of Babylon
TTITLE16=Άνευ ερμηνευτού - Eternal Alexander
TTITLE17=Άνευ ερμηνευτού - Tender Memories
EXTD=
EXTT0=
EXTT1=
EXTT2=
EXTT3=
EXTT4=
EXTT5=
EXTT6=
EXTT7=
EXTT8=
EXTT9=
EXTT10=
EXTT11=
EXTT12=
EXTT13=
EXTT14=
EXTT15=
EXTT16=
EXTT17=
PLAYORDER=
